<mxfile host="app.diagrams.net" modified="2023-06-24T09:56:05.057Z" agent="Mozilla/5.0 (Windows NT 10.0; Win64; x64) AppleWebKit/537.36 (KHTML, like Gecko) Chrome/114.0.0.0 Safari/537.36" etag="o_urfgsIA_-6noEmjxEv" version="21.5.0" type="device">
  <diagram id="C5RBs43oDa-KdzZeNtuy" name="Page-1">
    <mxGraphModel dx="5267" dy="1713" grid="1" gridSize="10" guides="1" tooltips="1" connect="1" arrows="1" fold="1" page="1" pageScale="1" pageWidth="827" pageHeight="1169" math="0" shadow="0">
      <root>
        <mxCell id="WIyWlLk6GJQsqaUBKTNV-0" />
        <mxCell id="WIyWlLk6GJQsqaUBKTNV-1" parent="WIyWlLk6GJQsqaUBKTNV-0" />
        <mxCell id="zkfFHV4jXpPFQw0GAbJ--0" value="Animal" style="swimlane;fontStyle=2;align=center;verticalAlign=top;childLayout=stackLayout;horizontal=1;startSize=26;horizontalStack=0;resizeParent=1;resizeLast=0;collapsible=1;marginBottom=0;rounded=0;shadow=0;strokeWidth=1;" parent="WIyWlLk6GJQsqaUBKTNV-1" vertex="1">
          <mxGeometry width="240" height="258" as="geometry">
            <mxRectangle x="230" y="140" width="160" height="26" as="alternateBounds" />
          </mxGeometry>
        </mxCell>
        <mxCell id="zkfFHV4jXpPFQw0GAbJ--1" value="- std::string nome;&#xa;- std::string descrizione;&#xa;- int eta;&#xa;- char sesso;&#xa;- float peso;&#xa;- Alimentazione tipo;" style="text;align=left;verticalAlign=top;spacingLeft=4;spacingRight=4;overflow=hidden;rotatable=0;points=[[0,0.5],[1,0.5]];portConstraint=eastwest;" parent="zkfFHV4jXpPFQw0GAbJ--0" vertex="1">
          <mxGeometry y="26" width="240" height="94" as="geometry" />
        </mxCell>
        <mxCell id="zkfFHV4jXpPFQw0GAbJ--4" value="" style="line;html=1;strokeWidth=1;align=left;verticalAlign=middle;spacingTop=-1;spacingLeft=3;spacingRight=3;rotatable=0;labelPosition=right;points=[];portConstraint=eastwest;" parent="zkfFHV4jXpPFQw0GAbJ--0" vertex="1">
          <mxGeometry y="120" width="240" height="8" as="geometry" />
        </mxCell>
        <mxCell id="zkfFHV4jXpPFQw0GAbJ--5" value="+ Animal(const std::string&amp; nome, int eta, &#xa;const char sesso, float peso, &#xa;const std::string&amp; cibo_preferito, &#xa;std::string&amp; descrizione);&#xa;+ virtual ~Animal();&#xa;+std::string getName()&#xa;+void emettereVerso() const&#xa;+bool operator==(const Animal&amp; other) const&#xa;" style="text;align=left;verticalAlign=top;spacingLeft=4;spacingRight=4;overflow=hidden;rotatable=0;points=[[0,0.5],[1,0.5]];portConstraint=eastwest;" parent="zkfFHV4jXpPFQw0GAbJ--0" vertex="1">
          <mxGeometry y="128" width="240" height="130" as="geometry" />
        </mxCell>
        <mxCell id="zkfFHV4jXpPFQw0GAbJ--6" value="Leone" style="swimlane;fontStyle=0;align=center;verticalAlign=top;childLayout=stackLayout;horizontal=1;startSize=26;horizontalStack=0;resizeParent=1;resizeLast=0;collapsible=1;marginBottom=0;rounded=0;shadow=0;strokeWidth=1;" parent="WIyWlLk6GJQsqaUBKTNV-1" vertex="1">
          <mxGeometry x="-810" y="480" width="380" height="248" as="geometry">
            <mxRectangle x="130" y="380" width="160" height="26" as="alternateBounds" />
          </mxGeometry>
        </mxCell>
        <mxCell id="zkfFHV4jXpPFQw0GAbJ--7" value="int rugito;Â &#xa;bool criniera;" style="text;align=left;verticalAlign=top;spacingLeft=4;spacingRight=4;overflow=hidden;rotatable=0;points=[[0,0.5],[1,0.5]];portConstraint=eastwest;" parent="zkfFHV4jXpPFQw0GAbJ--6" vertex="1">
          <mxGeometry y="26" width="380" height="34" as="geometry" />
        </mxCell>
        <mxCell id="zkfFHV4jXpPFQw0GAbJ--9" value="" style="line;html=1;strokeWidth=1;align=left;verticalAlign=middle;spacingTop=-1;spacingLeft=3;spacingRight=3;rotatable=0;labelPosition=right;points=[];portConstraint=eastwest;" parent="zkfFHV4jXpPFQw0GAbJ--6" vertex="1">
          <mxGeometry y="60" width="380" height="8" as="geometry" />
        </mxCell>
        <mxCell id="NBuz3Na_B6GIbuZCRm-2-12" value="&lt;div style=&quot;color: rgb(212, 212, 212); background-color: rgb(30, 30, 30); font-family: Consolas, &amp;quot;Courier New&amp;quot;, monospace; font-size: 14px; line-height: 19px;&quot;&gt;&lt;div&gt;+ Leone(const std::string&lt;span style=&quot;color: #569cd6;&quot;&gt;&amp;amp;&lt;/span&gt; nome, &lt;span style=&quot;color: #569cd6;&quot;&gt;int&lt;/span&gt; eta,&amp;nbsp;&lt;/div&gt;&lt;div&gt;&lt;span style=&quot;color: #569cd6;&quot;&gt;const&lt;/span&gt; &lt;span style=&quot;color: #569cd6;&quot;&gt;char&lt;/span&gt; sesso, &lt;span style=&quot;color: #569cd6;&quot;&gt;float&lt;/span&gt; peso,&amp;nbsp;&lt;/div&gt;&lt;div&gt;&lt;span style=&quot;color: #569cd6;&quot;&gt;const&lt;/span&gt; std::string&lt;span style=&quot;color: #569cd6;&quot;&gt;&amp;amp;&lt;/span&gt; cibo_preferito,&amp;nbsp;&lt;/div&gt;&lt;div&gt;std::string&lt;span style=&quot;color: #569cd6;&quot;&gt;&amp;amp;&lt;/span&gt; descrizione,&amp;nbsp;&lt;/div&gt;&lt;div&gt;&lt;span style=&quot;color: #569cd6;&quot;&gt;int&lt;/span&gt; rugito, &lt;span style=&quot;color: #569cd6;&quot;&gt;bool&lt;/span&gt; criniera);&lt;/div&gt;&lt;div&gt;&amp;nbsp; &amp;nbsp; + std::string getName() &lt;span style=&quot;color: #569cd6;&quot;&gt;const&lt;/span&gt; &lt;span style=&quot;color: #569cd6;&quot;&gt;override&lt;/span&gt;&amp;nbsp; &amp;nbsp; &amp;nbsp; &amp;nbsp;&amp;nbsp;&lt;/div&gt;&lt;div&gt;&amp;nbsp; &amp;nbsp; +&amp;nbsp;&lt;span style=&quot;color: #569cd6;&quot;&gt;void&lt;/span&gt; emettereVerso() &lt;span style=&quot;color: #569cd6;&quot;&gt;const&lt;/span&gt; &lt;span style=&quot;color: #569cd6;&quot;&gt;override&lt;/span&gt;&amp;nbsp;&lt;/div&gt;&lt;div&gt;&lt;span style=&quot;color: #6a9955;&quot;&gt;&amp;nbsp; &amp;nbsp; &amp;nbsp; &amp;nbsp;&amp;nbsp;&lt;br&gt;&lt;/span&gt;&lt;/div&gt;&lt;br&gt;&lt;/div&gt;" style="text;html=1;align=center;verticalAlign=middle;resizable=0;points=[];autosize=1;strokeColor=none;fillColor=none;" vertex="1" parent="zkfFHV4jXpPFQw0GAbJ--6">
          <mxGeometry y="68" width="380" height="180" as="geometry" />
        </mxCell>
        <mxCell id="zkfFHV4jXpPFQw0GAbJ--12" value="" style="endArrow=block;endSize=10;endFill=0;shadow=0;strokeWidth=1;rounded=0;edgeStyle=elbowEdgeStyle;elbow=vertical;dashed=1;" parent="WIyWlLk6GJQsqaUBKTNV-1" source="zkfFHV4jXpPFQw0GAbJ--6" edge="1">
          <mxGeometry width="160" relative="1" as="geometry">
            <mxPoint x="30" y="325" as="sourcePoint" />
            <mxPoint x="150" y="260" as="targetPoint" />
            <Array as="points">
              <mxPoint x="70" y="360" />
            </Array>
          </mxGeometry>
        </mxCell>
        <mxCell id="zkfFHV4jXpPFQw0GAbJ--13" value="Giraffa" style="swimlane;fontStyle=0;align=center;verticalAlign=top;childLayout=stackLayout;horizontal=1;startSize=26;horizontalStack=0;resizeParent=1;resizeLast=0;collapsible=1;marginBottom=0;rounded=0;shadow=0;strokeWidth=1;" parent="WIyWlLk6GJQsqaUBKTNV-1" vertex="1">
          <mxGeometry x="1140" y="728" width="380" height="248" as="geometry">
            <mxRectangle x="340" y="380" width="170" height="26" as="alternateBounds" />
          </mxGeometry>
        </mxCell>
        <mxCell id="zkfFHV4jXpPFQw0GAbJ--14" value="float LunghezzaCollo;&#xa;float Altezza;" style="text;align=left;verticalAlign=top;spacingLeft=4;spacingRight=4;overflow=hidden;rotatable=0;points=[[0,0.5],[1,0.5]];portConstraint=eastwest;" parent="zkfFHV4jXpPFQw0GAbJ--13" vertex="1">
          <mxGeometry y="26" width="380" height="44" as="geometry" />
        </mxCell>
        <mxCell id="zkfFHV4jXpPFQw0GAbJ--15" value="" style="line;html=1;strokeWidth=1;align=left;verticalAlign=middle;spacingTop=-1;spacingLeft=3;spacingRight=3;rotatable=0;labelPosition=right;points=[];portConstraint=eastwest;" parent="zkfFHV4jXpPFQw0GAbJ--13" vertex="1">
          <mxGeometry y="70" width="380" height="8" as="geometry" />
        </mxCell>
        <mxCell id="VgMNx0CDcjS-64YXaSAq-21" value="&lt;div style=&quot;color: rgb(212, 212, 212); background-color: rgb(30, 30, 30); font-family: Consolas, &amp;quot;Courier New&amp;quot;, monospace; font-size: 14px; line-height: 19px;&quot;&gt;&lt;div&gt;+ Giraffa(const std::string&lt;span style=&quot;color: #569cd6;&quot;&gt;&amp;amp;&lt;/span&gt; nome,&amp;nbsp;&lt;/div&gt;&lt;div&gt;&lt;span style=&quot;color: #569cd6;&quot;&gt;int&lt;/span&gt; eta, &lt;span style=&quot;color: #569cd6;&quot;&gt;const&lt;/span&gt; &lt;span style=&quot;color: #569cd6;&quot;&gt;char&lt;/span&gt; sesso, &lt;span style=&quot;color: #569cd6;&quot;&gt;float&lt;/span&gt; peso,&amp;nbsp;&lt;/div&gt;&lt;div&gt;&lt;span style=&quot;color: #569cd6;&quot;&gt;const&lt;/span&gt; std::string&lt;span style=&quot;color: #569cd6;&quot;&gt;&amp;amp;&lt;/span&gt; cibo_preferito,&amp;nbsp;&lt;/div&gt;&lt;div&gt;std::string&lt;span style=&quot;color: #569cd6;&quot;&gt;&amp;amp;&lt;/span&gt; descrizione,&amp;nbsp;&lt;/div&gt;&lt;div&gt;&lt;span style=&quot;color: #569cd6;&quot;&gt;float&lt;/span&gt; LunghezzaCollo, &lt;span style=&quot;color: #569cd6;&quot;&gt;float&lt;/span&gt; Altezza);&lt;/div&gt;&lt;div&gt;&amp;nbsp; &amp;nbsp; + std::string getName() &lt;span style=&quot;color: #569cd6;&quot;&gt;const&lt;/span&gt; &lt;span style=&quot;color: #569cd6;&quot;&gt;override&lt;/span&gt;&amp;nbsp; &amp;nbsp; &amp;nbsp; &amp;nbsp;&amp;nbsp;&lt;/div&gt;&lt;div&gt;&amp;nbsp; &amp;nbsp; +&amp;nbsp;&lt;span style=&quot;color: #569cd6;&quot;&gt;void&lt;/span&gt; emettereVerso() &lt;span style=&quot;color: #569cd6;&quot;&gt;const&lt;/span&gt; &lt;span style=&quot;color: #569cd6;&quot;&gt;override&lt;/span&gt;&lt;br&gt;&lt;/div&gt;&lt;br&gt;&lt;/div&gt;" style="text;html=1;align=center;verticalAlign=middle;resizable=0;points=[];autosize=1;strokeColor=none;fillColor=none;" parent="zkfFHV4jXpPFQw0GAbJ--13" vertex="1">
          <mxGeometry y="78" width="380" height="170" as="geometry" />
        </mxCell>
        <mxCell id="zkfFHV4jXpPFQw0GAbJ--16" value="" style="endArrow=none;endSize=10;endFill=0;shadow=0;strokeWidth=1;rounded=0;edgeStyle=elbowEdgeStyle;elbow=vertical;dashed=1;" parent="WIyWlLk6GJQsqaUBKTNV-1" source="zkfFHV4jXpPFQw0GAbJ--13" edge="1">
          <mxGeometry width="160" relative="1" as="geometry">
            <mxPoint x="237" y="675" as="sourcePoint" />
            <mxPoint x="150" y="540" as="targetPoint" />
            <Array as="points">
              <mxPoint x="507" y="540" />
              <mxPoint x="397" y="500" />
              <mxPoint x="657" y="450" />
            </Array>
          </mxGeometry>
        </mxCell>
        <mxCell id="zkfFHV4jXpPFQw0GAbJ--17" value="Alimentazione" style="swimlane;fontStyle=0;align=center;verticalAlign=top;childLayout=stackLayout;horizontal=1;startSize=26;horizontalStack=0;resizeParent=1;resizeLast=0;collapsible=1;marginBottom=0;rounded=0;shadow=0;strokeWidth=1;" parent="WIyWlLk6GJQsqaUBKTNV-1" vertex="1">
          <mxGeometry x="620" width="480" height="200" as="geometry">
            <mxRectangle x="550" y="140" width="160" height="26" as="alternateBounds" />
          </mxGeometry>
        </mxCell>
        <mxCell id="NBuz3Na_B6GIbuZCRm-2-0" value="&lt;div style=&quot;color: rgb(212, 212, 212); background-color: rgb(30, 30, 30); font-family: Consolas, &amp;quot;Courier New&amp;quot;, monospace; font-size: 14px; line-height: 19px;&quot;&gt;&lt;div style=&quot;line-height: 19px;&quot;&gt;std::string cibo_preferito;&lt;/div&gt;&lt;/div&gt;" style="text;html=1;align=center;verticalAlign=middle;resizable=0;points=[];autosize=1;strokeColor=none;fillColor=none;" vertex="1" parent="zkfFHV4jXpPFQw0GAbJ--17">
          <mxGeometry y="26" width="480" height="30" as="geometry" />
        </mxCell>
        <mxCell id="zkfFHV4jXpPFQw0GAbJ--23" value="" style="line;html=1;strokeWidth=1;align=left;verticalAlign=middle;spacingTop=-1;spacingLeft=3;spacingRight=3;rotatable=0;labelPosition=right;points=[];portConstraint=eastwest;" parent="zkfFHV4jXpPFQw0GAbJ--17" vertex="1">
          <mxGeometry y="56" width="480" height="30" as="geometry" />
        </mxCell>
        <mxCell id="NBuz3Na_B6GIbuZCRm-2-6" value="&lt;div style=&quot;color: rgb(212, 212, 212); background-color: rgb(30, 30, 30); font-family: Consolas, &amp;quot;Courier New&amp;quot;, monospace; font-size: 14px; line-height: 19px;&quot;&gt;&lt;div&gt;&amp;nbsp; + Alimentazione(const std::string&lt;span style=&quot;color: #569cd6;&quot;&gt;&amp;amp;&lt;/span&gt; cibo_preferito);&lt;/div&gt;&lt;div&gt;&amp;nbsp; &amp;nbsp; + Alimentazione(&lt;span style=&quot;color: #569cd6;&quot;&gt;const&lt;/span&gt; Alimentazione&lt;span style=&quot;color: #569cd6;&quot;&gt;&amp;amp;&lt;/span&gt; other);&lt;span style=&quot;color: #6a9955;&quot;&gt; // CDC&lt;/span&gt;&lt;/div&gt;&lt;div&gt;&amp;nbsp; &amp;nbsp; + Alimentazione&lt;span style=&quot;color: #569cd6;&quot;&gt;&amp;amp;&lt;/span&gt; operator=(&lt;span style=&quot;color: #569cd6;&quot;&gt;const&lt;/span&gt; Alimentazione&lt;span style=&quot;color: #569cd6;&quot;&gt;&amp;amp;&lt;/span&gt; other);&amp;nbsp; &amp;nbsp;&lt;/div&gt;&lt;div&gt;&amp;nbsp; &amp;nbsp; + std::string getCiboPreferito() &lt;span style=&quot;color: #569cd6;&quot;&gt;const&lt;/span&gt;;&lt;/div&gt;&lt;div&gt;&amp;nbsp; &amp;nbsp; +&amp;nbsp;&lt;span style=&quot;color: #569cd6;&quot;&gt;virtual&lt;/span&gt; ~Alimentazione();&lt;/div&gt;&lt;/div&gt;" style="text;html=1;align=center;verticalAlign=middle;resizable=0;points=[];autosize=1;strokeColor=none;fillColor=none;" vertex="1" parent="zkfFHV4jXpPFQw0GAbJ--17">
          <mxGeometry y="86" width="480" height="110" as="geometry" />
        </mxCell>
        <mxCell id="VgMNx0CDcjS-64YXaSAq-1" value="Coccodrillo" style="swimlane;fontStyle=0;align=center;verticalAlign=top;childLayout=stackLayout;horizontal=1;startSize=26;horizontalStack=0;resizeParent=1;resizeLast=0;collapsible=1;marginBottom=0;rounded=0;shadow=0;strokeWidth=1;" parent="WIyWlLk6GJQsqaUBKTNV-1" vertex="1">
          <mxGeometry x="-420" y="480" width="340" height="228" as="geometry">
            <mxRectangle x="130" y="380" width="160" height="26" as="alternateBounds" />
          </mxGeometry>
        </mxCell>
        <mxCell id="VgMNx0CDcjS-64YXaSAq-23" value="&lt;div style=&quot;color: rgb(212, 212, 212); background-color: rgb(30, 30, 30); font-family: Consolas, &amp;quot;Courier New&amp;quot;, monospace; font-size: 14px; line-height: 19px;&quot;&gt;&lt;div&gt;float lunghezza;&lt;/div&gt;&lt;div&gt;&lt;span style=&quot;color: #569cd6;&quot;&gt;int&lt;/span&gt; numero_denti;&lt;/div&gt;&lt;/div&gt;" style="text;html=1;strokeColor=none;fillColor=none;align=center;verticalAlign=middle;whiteSpace=wrap;rounded=0;" parent="VgMNx0CDcjS-64YXaSAq-1" vertex="1">
          <mxGeometry y="26" width="340" height="44" as="geometry" />
        </mxCell>
        <mxCell id="VgMNx0CDcjS-64YXaSAq-4" value="" style="line;html=1;strokeWidth=1;align=left;verticalAlign=middle;spacingTop=-1;spacingLeft=3;spacingRight=3;rotatable=0;labelPosition=right;points=[];portConstraint=eastwest;" parent="VgMNx0CDcjS-64YXaSAq-1" vertex="1">
          <mxGeometry y="70" width="340" height="8" as="geometry" />
        </mxCell>
        <mxCell id="NBuz3Na_B6GIbuZCRm-2-13" value="&lt;div style=&quot;color: rgb(212, 212, 212); background-color: rgb(30, 30, 30); font-family: Consolas, &amp;quot;Courier New&amp;quot;, monospace; font-size: 14px; line-height: 19px;&quot;&gt;&lt;div&gt;+ Coccodrillo(const std::string&lt;span style=&quot;color: #569cd6;&quot;&gt;&amp;amp;&lt;/span&gt; nome,&lt;/div&gt;&lt;div&gt;&lt;span style=&quot;color: #569cd6;&quot;&gt;int&lt;/span&gt; eta, &lt;span style=&quot;color: #569cd6;&quot;&gt;const&lt;/span&gt; &lt;span style=&quot;color: #569cd6;&quot;&gt;char&lt;/span&gt; sesso, &lt;span style=&quot;color: #569cd6;&quot;&gt;float&lt;/span&gt; peso,&amp;nbsp;&lt;/div&gt;&lt;div&gt;&lt;span style=&quot;color: #569cd6;&quot;&gt;const&lt;/span&gt; std::string&lt;span style=&quot;color: #569cd6;&quot;&gt;&amp;amp;&lt;/span&gt; cibo_preferito,&amp;nbsp;&lt;/div&gt;&lt;div&gt;std::string&lt;span style=&quot;color: #569cd6;&quot;&gt;&amp;amp;&lt;/span&gt; descrizione,&amp;nbsp;&lt;/div&gt;&lt;div&gt;&lt;span style=&quot;color: #569cd6;&quot;&gt;float&lt;/span&gt; lunghezza, &lt;span style=&quot;color: #569cd6;&quot;&gt;int&lt;/span&gt; numero_denti;);&lt;/div&gt;&lt;div&gt;&amp;nbsp; &amp;nbsp; + std::string getName() &lt;span style=&quot;color: #569cd6;&quot;&gt;const&lt;/span&gt; &lt;span style=&quot;color: #569cd6;&quot;&gt;override&lt;/span&gt;&amp;nbsp;&lt;/div&gt;&lt;div&gt;&amp;nbsp; &amp;nbsp; +&amp;nbsp;&lt;span style=&quot;color: #569cd6;&quot;&gt;void&lt;/span&gt; emettereVerso() &lt;span style=&quot;color: #569cd6;&quot;&gt;const&lt;/span&gt; &lt;span style=&quot;color: #569cd6;&quot;&gt;override&lt;/span&gt;&lt;/div&gt;&lt;/div&gt;" style="text;html=1;align=center;verticalAlign=middle;resizable=0;points=[];autosize=1;strokeColor=none;fillColor=none;" vertex="1" parent="VgMNx0CDcjS-64YXaSAq-1">
          <mxGeometry y="78" width="340" height="150" as="geometry" />
        </mxCell>
        <mxCell id="VgMNx0CDcjS-64YXaSAq-7" value="" style="endArrow=none;html=1;rounded=0;startArrow=diamondThin;startFill=0;entryX=0;entryY=0.467;entryDx=0;entryDy=0;entryPerimeter=0;exitX=1;exitY=0.5;exitDx=0;exitDy=0;" parent="WIyWlLk6GJQsqaUBKTNV-1" edge="1" target="zkfFHV4jXpPFQw0GAbJ--23" source="zkfFHV4jXpPFQw0GAbJ--1">
          <mxGeometry width="50" height="50" relative="1" as="geometry">
            <mxPoint x="240" y="55" as="sourcePoint" />
            <mxPoint x="476.96000000000004" y="54.99000000000001" as="targetPoint" />
            <Array as="points" />
          </mxGeometry>
        </mxCell>
        <mxCell id="VgMNx0CDcjS-64YXaSAq-8" value="Tartaruga" style="swimlane;fontStyle=0;align=center;verticalAlign=top;childLayout=stackLayout;horizontal=1;startSize=26;horizontalStack=0;resizeParent=1;resizeLast=0;collapsible=1;marginBottom=0;rounded=0;shadow=0;strokeWidth=1;" parent="WIyWlLk6GJQsqaUBKTNV-1" vertex="1">
          <mxGeometry x="360" y="745" width="360" height="214" as="geometry">
            <mxRectangle x="340" y="380" width="170" height="26" as="alternateBounds" />
          </mxGeometry>
        </mxCell>
        <mxCell id="VgMNx0CDcjS-64YXaSAq-25" value="&lt;div style=&quot;color: rgb(212, 212, 212); background-color: rgb(30, 30, 30); font-family: Consolas, &amp;quot;Courier New&amp;quot;, monospace; font-size: 14px; line-height: 19px;&quot;&gt;Dim_Guscio misura;&lt;/div&gt;" style="text;html=1;strokeColor=none;fillColor=none;align=center;verticalAlign=middle;whiteSpace=wrap;rounded=0;" parent="VgMNx0CDcjS-64YXaSAq-8" vertex="1">
          <mxGeometry y="26" width="360" height="30" as="geometry" />
        </mxCell>
        <mxCell id="VgMNx0CDcjS-64YXaSAq-10" value="" style="line;html=1;strokeWidth=1;align=left;verticalAlign=middle;spacingTop=-1;spacingLeft=3;spacingRight=3;rotatable=0;labelPosition=right;points=[];portConstraint=eastwest;" parent="VgMNx0CDcjS-64YXaSAq-8" vertex="1">
          <mxGeometry y="56" width="360" height="8" as="geometry" />
        </mxCell>
        <mxCell id="NBuz3Na_B6GIbuZCRm-2-18" value="&lt;div style=&quot;color: rgb(212, 212, 212); background-color: rgb(30, 30, 30); font-family: Consolas, &amp;quot;Courier New&amp;quot;, monospace; font-size: 14px; line-height: 19px;&quot;&gt;&lt;div&gt;+ Tartaruga(const std::string&lt;span style=&quot;color: #569cd6;&quot;&gt;&amp;amp;&lt;/span&gt; nome,&amp;nbsp;&lt;/div&gt;&lt;div&gt;&lt;span style=&quot;color: #569cd6;&quot;&gt;int&lt;/span&gt; eta, &lt;span style=&quot;color: #569cd6;&quot;&gt;const&lt;/span&gt; &lt;span style=&quot;color: #569cd6;&quot;&gt;char&lt;/span&gt; sesso,&amp;nbsp;&lt;/div&gt;&lt;div&gt;&lt;span style=&quot;color: #569cd6;&quot;&gt;float&lt;/span&gt; peso, &lt;span style=&quot;color: #569cd6;&quot;&gt;const&lt;/span&gt; std::string&lt;span style=&quot;color: #569cd6;&quot;&gt;&amp;amp;&lt;/span&gt; cibo_preferito,&amp;nbsp;&lt;/div&gt;&lt;div&gt;std::string&lt;span style=&quot;color: #569cd6;&quot;&gt;&amp;amp;&lt;/span&gt; descrizione,&lt;/div&gt;&lt;div&gt;&amp;nbsp; &amp;nbsp; &lt;span style=&quot;color: #569cd6;&quot;&gt;float&lt;/span&gt; misura.x, &amp;nbsp;&lt;span style=&quot;color: #569cd6;&quot;&gt;float&lt;/span&gt; misura.y);&lt;/div&gt;&lt;div&gt;+ std::string getName() &lt;span style=&quot;color: #569cd6;&quot;&gt;const&lt;/span&gt; &lt;span style=&quot;color: #569cd6;&quot;&gt;override&lt;/span&gt;&amp;nbsp;&lt;/div&gt;&lt;div&gt;&amp;nbsp; &amp;nbsp; +&amp;nbsp;&lt;span style=&quot;color: #569cd6;&quot;&gt;void&lt;/span&gt; emettereVerso() &lt;span style=&quot;color: #569cd6;&quot;&gt;const&lt;/span&gt; &lt;span style=&quot;color: #569cd6;&quot;&gt;override&lt;/span&gt;&lt;/div&gt;&lt;/div&gt;" style="text;html=1;align=center;verticalAlign=middle;resizable=0;points=[];autosize=1;strokeColor=none;fillColor=none;" vertex="1" parent="VgMNx0CDcjS-64YXaSAq-8">
          <mxGeometry y="64" width="360" height="150" as="geometry" />
        </mxCell>
        <mxCell id="VgMNx0CDcjS-64YXaSAq-11" value="Struzzo" style="swimlane;fontStyle=0;align=center;verticalAlign=top;childLayout=stackLayout;horizontal=1;startSize=26;horizontalStack=0;resizeParent=1;resizeLast=0;collapsible=1;marginBottom=0;rounded=0;shadow=0;strokeWidth=1;" parent="WIyWlLk6GJQsqaUBKTNV-1" vertex="1">
          <mxGeometry x="750" y="728" width="350" height="190" as="geometry">
            <mxRectangle x="340" y="380" width="170" height="26" as="alternateBounds" />
          </mxGeometry>
        </mxCell>
        <mxCell id="VgMNx0CDcjS-64YXaSAq-12" value="float velocitamax;" style="text;align=left;verticalAlign=top;spacingLeft=4;spacingRight=4;overflow=hidden;rotatable=0;points=[[0,0.5],[1,0.5]];portConstraint=eastwest;" parent="VgMNx0CDcjS-64YXaSAq-11" vertex="1">
          <mxGeometry y="26" width="350" height="26" as="geometry" />
        </mxCell>
        <mxCell id="VgMNx0CDcjS-64YXaSAq-13" value="" style="line;html=1;strokeWidth=1;align=left;verticalAlign=middle;spacingTop=-1;spacingLeft=3;spacingRight=3;rotatable=0;labelPosition=right;points=[];portConstraint=eastwest;" parent="VgMNx0CDcjS-64YXaSAq-11" vertex="1">
          <mxGeometry y="52" width="350" height="8" as="geometry" />
        </mxCell>
        <mxCell id="NBuz3Na_B6GIbuZCRm-2-17" value="&lt;div style=&quot;color: rgb(212, 212, 212); background-color: rgb(30, 30, 30); font-family: Consolas, &amp;quot;Courier New&amp;quot;, monospace; font-size: 14px; line-height: 19px;&quot;&gt;&lt;div&gt;+ Struzzo(const std::string&lt;span style=&quot;color: #569cd6;&quot;&gt;&amp;amp;&lt;/span&gt; nome,&amp;nbsp;&lt;/div&gt;&lt;div&gt;&lt;span style=&quot;color: #569cd6;&quot;&gt;int&lt;/span&gt; eta, &lt;span style=&quot;color: #569cd6;&quot;&gt;const&lt;/span&gt; &lt;span style=&quot;color: #569cd6;&quot;&gt;char&lt;/span&gt; sesso, &lt;span style=&quot;color: #569cd6;&quot;&gt;float&lt;/span&gt; peso,&amp;nbsp;&lt;/div&gt;&lt;div&gt;&lt;span style=&quot;color: #569cd6;&quot;&gt;const&lt;/span&gt; std::string&lt;span style=&quot;color: #569cd6;&quot;&gt;&amp;amp;&lt;/span&gt; cibo_preferito,&amp;nbsp;&lt;/div&gt;&lt;div&gt;std::string&lt;span style=&quot;color: #569cd6;&quot;&gt;&amp;amp;&lt;/span&gt; descrizione, &lt;span style=&quot;color: #569cd6;&quot;&gt;float&lt;/span&gt; velocitamax);&lt;/div&gt;&lt;div&gt;&amp;nbsp; &amp;nbsp; + std::string getName() &lt;span style=&quot;color: #569cd6;&quot;&gt;const&lt;/span&gt; &lt;span style=&quot;color: #569cd6;&quot;&gt;override&lt;/span&gt;&lt;/div&gt;&lt;div&gt;&amp;nbsp; &amp;nbsp; +&amp;nbsp;&lt;span style=&quot;color: #569cd6;&quot;&gt;void&lt;/span&gt; emettereVerso() &lt;span style=&quot;color: #569cd6;&quot;&gt;const&lt;/span&gt; &lt;span style=&quot;color: #569cd6;&quot;&gt;override&lt;/span&gt;&lt;/div&gt;&lt;/div&gt;" style="text;html=1;align=center;verticalAlign=middle;resizable=0;points=[];autosize=1;strokeColor=none;fillColor=none;" vertex="1" parent="VgMNx0CDcjS-64YXaSAq-11">
          <mxGeometry y="60" width="350" height="130" as="geometry" />
        </mxCell>
        <mxCell id="VgMNx0CDcjS-64YXaSAq-14" value="Pavone" style="swimlane;fontStyle=0;align=center;verticalAlign=top;childLayout=stackLayout;horizontal=1;startSize=26;horizontalStack=0;resizeParent=1;resizeLast=0;collapsible=1;marginBottom=0;rounded=0;shadow=0;strokeWidth=1;" parent="WIyWlLk6GJQsqaUBKTNV-1" vertex="1">
          <mxGeometry x="-20" y="704" width="340" height="214" as="geometry">
            <mxRectangle x="340" y="380" width="170" height="26" as="alternateBounds" />
          </mxGeometry>
        </mxCell>
        <mxCell id="VgMNx0CDcjS-64YXaSAq-24" value="&lt;div style=&quot;color: rgb(212, 212, 212); background-color: rgb(30, 30, 30); font-family: Consolas, &amp;quot;Courier New&amp;quot;, monospace; font-size: 14px; line-height: 19px;&quot;&gt;float raggioRuota;&lt;/div&gt;" style="text;html=1;strokeColor=none;fillColor=none;align=center;verticalAlign=middle;whiteSpace=wrap;rounded=0;" parent="VgMNx0CDcjS-64YXaSAq-14" vertex="1">
          <mxGeometry y="26" width="340" height="30" as="geometry" />
        </mxCell>
        <mxCell id="VgMNx0CDcjS-64YXaSAq-16" value="" style="line;html=1;strokeWidth=1;align=left;verticalAlign=middle;spacingTop=-1;spacingLeft=3;spacingRight=3;rotatable=0;labelPosition=right;points=[];portConstraint=eastwest;" parent="VgMNx0CDcjS-64YXaSAq-14" vertex="1">
          <mxGeometry y="56" width="340" height="8" as="geometry" />
        </mxCell>
        <mxCell id="NBuz3Na_B6GIbuZCRm-2-14" value="&lt;div style=&quot;color: rgb(212, 212, 212); background-color: rgb(30, 30, 30); font-family: Consolas, &amp;quot;Courier New&amp;quot;, monospace; font-size: 14px; line-height: 19px;&quot;&gt;&lt;div&gt;+ Pavone(const std::string&lt;span style=&quot;color: #569cd6;&quot;&gt;&amp;amp;&lt;/span&gt; nome, &lt;span style=&quot;color: #569cd6;&quot;&gt;int&lt;/span&gt; eta,&amp;nbsp;&lt;/div&gt;&lt;div&gt;&lt;span style=&quot;color: #569cd6;&quot;&gt;const&lt;/span&gt; &lt;span style=&quot;color: #569cd6;&quot;&gt;char&lt;/span&gt; sesso, &lt;span style=&quot;color: #569cd6;&quot;&gt;float&lt;/span&gt; peso,&amp;nbsp;&lt;/div&gt;&lt;div&gt;&lt;span style=&quot;color: #569cd6;&quot;&gt;const&lt;/span&gt; std::string&lt;span style=&quot;color: #569cd6;&quot;&gt;&amp;amp;&lt;/span&gt; cibo_preferito,&amp;nbsp;&lt;/div&gt;&lt;div&gt;std::string&lt;span style=&quot;color: #569cd6;&quot;&gt;&amp;amp;&lt;/span&gt; descrizione,&amp;nbsp;&lt;/div&gt;&lt;div&gt;&lt;span style=&quot;color: #569cd6;&quot;&gt;float&lt;/span&gt; raggioRuota);&lt;/div&gt;&lt;div&gt;&amp;nbsp; &amp;nbsp; + std::string getName() &lt;span style=&quot;color: #569cd6;&quot;&gt;const&lt;/span&gt; &lt;span style=&quot;color: #569cd6;&quot;&gt;override&lt;/span&gt;&lt;/div&gt;&lt;div&gt;&amp;nbsp; &amp;nbsp; +&amp;nbsp;&lt;span style=&quot;color: #569cd6;&quot;&gt;void&lt;/span&gt; emettereVerso() &lt;span style=&quot;color: #569cd6;&quot;&gt;const&lt;/span&gt; &lt;span style=&quot;color: #569cd6;&quot;&gt;override&lt;/span&gt;&amp;nbsp;&lt;/div&gt;&lt;/div&gt;" style="text;html=1;align=center;verticalAlign=middle;resizable=0;points=[];autosize=1;strokeColor=none;fillColor=none;" vertex="1" parent="VgMNx0CDcjS-64YXaSAq-14">
          <mxGeometry y="64" width="340" height="150" as="geometry" />
        </mxCell>
        <mxCell id="VgMNx0CDcjS-64YXaSAq-17" value="" style="endArrow=none;dashed=1;html=1;rounded=0;exitX=0.5;exitY=0;exitDx=0;exitDy=0;" parent="WIyWlLk6GJQsqaUBKTNV-1" source="VgMNx0CDcjS-64YXaSAq-11" edge="1">
          <mxGeometry width="50" height="50" relative="1" as="geometry">
            <mxPoint x="760" y="720" as="sourcePoint" />
            <mxPoint x="925" y="540" as="targetPoint" />
          </mxGeometry>
        </mxCell>
        <mxCell id="VgMNx0CDcjS-64YXaSAq-18" value="" style="endArrow=none;dashed=1;html=1;rounded=0;exitX=0.5;exitY=0;exitDx=0;exitDy=0;" parent="WIyWlLk6GJQsqaUBKTNV-1" source="VgMNx0CDcjS-64YXaSAq-8" edge="1">
          <mxGeometry width="50" height="50" relative="1" as="geometry">
            <mxPoint x="680" y="612" as="sourcePoint" />
            <mxPoint x="540" y="540" as="targetPoint" />
          </mxGeometry>
        </mxCell>
        <mxCell id="VgMNx0CDcjS-64YXaSAq-19" value="" style="endArrow=none;dashed=1;html=1;rounded=0;exitX=0.5;exitY=0;exitDx=0;exitDy=0;" parent="WIyWlLk6GJQsqaUBKTNV-1" source="VgMNx0CDcjS-64YXaSAq-14" edge="1">
          <mxGeometry width="50" height="50" relative="1" as="geometry">
            <mxPoint x="337" y="552" as="sourcePoint" />
            <mxPoint x="147" y="360" as="targetPoint" />
          </mxGeometry>
        </mxCell>
        <mxCell id="VgMNx0CDcjS-64YXaSAq-20" value="" style="endArrow=none;dashed=1;html=1;rounded=0;exitX=0.5;exitY=0;exitDx=0;exitDy=0;" parent="WIyWlLk6GJQsqaUBKTNV-1" source="VgMNx0CDcjS-64YXaSAq-1" edge="1">
          <mxGeometry width="50" height="50" relative="1" as="geometry">
            <mxPoint x="-340" y="372" as="sourcePoint" />
            <mxPoint x="-250" y="360" as="targetPoint" />
          </mxGeometry>
        </mxCell>
        <mxCell id="pUbMLzkqoJvdjn61nzLm-0" value="Carnivoro" style="swimlane;fontStyle=0;align=center;verticalAlign=top;childLayout=stackLayout;horizontal=1;startSize=26;horizontalStack=0;resizeParent=1;resizeLast=0;collapsible=1;marginBottom=0;rounded=0;shadow=0;strokeWidth=1;" parent="WIyWlLk6GJQsqaUBKTNV-1" vertex="1">
          <mxGeometry x="1050" y="240" width="100" height="64" as="geometry">
            <mxRectangle x="550" y="140" width="160" height="26" as="alternateBounds" />
          </mxGeometry>
        </mxCell>
        <mxCell id="pUbMLzkqoJvdjn61nzLm-2" value="" style="line;html=1;strokeWidth=1;align=left;verticalAlign=middle;spacingTop=-1;spacingLeft=3;spacingRight=3;rotatable=0;labelPosition=right;points=[];portConstraint=eastwest;" parent="pUbMLzkqoJvdjn61nzLm-0" vertex="1">
          <mxGeometry y="26" width="100" height="8" as="geometry" />
        </mxCell>
        <mxCell id="NBuz3Na_B6GIbuZCRm-2-8" value="&lt;div style=&quot;color: rgb(212, 212, 212); background-color: rgb(30, 30, 30); font-family: Consolas, &amp;quot;Courier New&amp;quot;, monospace; font-size: 14px; line-height: 19px;&quot;&gt;Carnivoro();&lt;/div&gt;" style="text;html=1;align=center;verticalAlign=middle;resizable=0;points=[];autosize=1;strokeColor=none;fillColor=none;" vertex="1" parent="pUbMLzkqoJvdjn61nzLm-0">
          <mxGeometry y="34" width="100" height="30" as="geometry" />
        </mxCell>
        <mxCell id="pUbMLzkqoJvdjn61nzLm-4" value="Erbivoro" style="swimlane;fontStyle=0;align=center;verticalAlign=top;childLayout=stackLayout;horizontal=1;startSize=26;horizontalStack=0;resizeParent=1;resizeLast=0;collapsible=1;marginBottom=0;rounded=0;shadow=0;strokeWidth=1;" parent="WIyWlLk6GJQsqaUBKTNV-1" vertex="1">
          <mxGeometry x="570" y="240" width="105" height="70" as="geometry">
            <mxRectangle x="550" y="140" width="160" height="26" as="alternateBounds" />
          </mxGeometry>
        </mxCell>
        <mxCell id="pUbMLzkqoJvdjn61nzLm-6" value="" style="line;html=1;strokeWidth=1;align=left;verticalAlign=middle;spacingTop=-1;spacingLeft=3;spacingRight=3;rotatable=0;labelPosition=right;points=[];portConstraint=eastwest;" parent="pUbMLzkqoJvdjn61nzLm-4" vertex="1">
          <mxGeometry y="26" width="105" height="8" as="geometry" />
        </mxCell>
        <mxCell id="NBuz3Na_B6GIbuZCRm-2-7" value="&lt;div style=&quot;color: rgb(212, 212, 212); background-color: rgb(30, 30, 30); font-family: Consolas, &amp;quot;Courier New&amp;quot;, monospace; font-size: 14px; line-height: 19px;&quot;&gt;&lt;div style=&quot;line-height: 19px;&quot;&gt;Erbivoro();&lt;/div&gt;&lt;/div&gt;" style="text;html=1;align=center;verticalAlign=middle;resizable=0;points=[];autosize=1;strokeColor=none;fillColor=none;" vertex="1" parent="pUbMLzkqoJvdjn61nzLm-4">
          <mxGeometry y="34" width="105" height="30" as="geometry" />
        </mxCell>
        <mxCell id="pUbMLzkqoJvdjn61nzLm-8" value="Onnivoro" style="swimlane;fontStyle=0;align=center;verticalAlign=top;childLayout=stackLayout;horizontal=1;startSize=26;horizontalStack=0;resizeParent=1;resizeLast=0;collapsible=1;marginBottom=0;rounded=0;shadow=0;strokeWidth=1;" parent="WIyWlLk6GJQsqaUBKTNV-1" vertex="1">
          <mxGeometry x="770" y="320" width="110" height="64" as="geometry">
            <mxRectangle x="550" y="140" width="160" height="26" as="alternateBounds" />
          </mxGeometry>
        </mxCell>
        <mxCell id="pUbMLzkqoJvdjn61nzLm-10" value="" style="line;html=1;strokeWidth=1;align=left;verticalAlign=middle;spacingTop=-1;spacingLeft=3;spacingRight=3;rotatable=0;labelPosition=right;points=[];portConstraint=eastwest;" parent="pUbMLzkqoJvdjn61nzLm-8" vertex="1">
          <mxGeometry y="26" width="110" height="8" as="geometry" />
        </mxCell>
        <mxCell id="NBuz3Na_B6GIbuZCRm-2-10" value="&lt;div style=&quot;color: rgb(212, 212, 212); background-color: rgb(30, 30, 30); font-family: Consolas, &amp;quot;Courier New&amp;quot;, monospace; font-size: 14px; line-height: 19px;&quot;&gt;&amp;nbsp;Onnivoro();&lt;/div&gt;" style="text;html=1;align=center;verticalAlign=middle;resizable=0;points=[];autosize=1;strokeColor=none;fillColor=none;" vertex="1" parent="pUbMLzkqoJvdjn61nzLm-8">
          <mxGeometry y="34" width="110" height="30" as="geometry" />
        </mxCell>
        <mxCell id="pUbMLzkqoJvdjn61nzLm-13" value="" style="endArrow=none;dashed=1;html=1;rounded=0;entryX=0.5;entryY=0;entryDx=0;entryDy=0;startArrow=block;startFill=0;exitX=0;exitY=1;exitDx=0;exitDy=0;" parent="WIyWlLk6GJQsqaUBKTNV-1" target="pUbMLzkqoJvdjn61nzLm-4" edge="1" source="zkfFHV4jXpPFQw0GAbJ--17">
          <mxGeometry width="50" height="50" relative="1" as="geometry">
            <mxPoint x="690" y="73" as="sourcePoint" />
            <mxPoint x="680" y="180" as="targetPoint" />
          </mxGeometry>
        </mxCell>
        <mxCell id="pUbMLzkqoJvdjn61nzLm-14" value="" style="endArrow=none;dashed=1;html=1;rounded=0;startArrow=block;startFill=0;entryX=0;entryY=0.5;entryDx=0;entryDy=0;exitX=0.5;exitY=1;exitDx=0;exitDy=0;" parent="WIyWlLk6GJQsqaUBKTNV-1" source="pUbMLzkqoJvdjn61nzLm-4" edge="1" target="pUbMLzkqoJvdjn61nzLm-8">
          <mxGeometry width="50" height="50" relative="1" as="geometry">
            <mxPoint x="650" y="310" as="sourcePoint" />
            <mxPoint x="690" y="285.00800000000004" as="targetPoint" />
          </mxGeometry>
        </mxCell>
        <mxCell id="pUbMLzkqoJvdjn61nzLm-16" value="" style="endArrow=block;html=1;rounded=0;exitX=0.5;exitY=0;exitDx=0;exitDy=0;dashed=1;startArrow=none;startFill=0;endFill=0;entryX=1;entryY=1;entryDx=0;entryDy=0;" parent="WIyWlLk6GJQsqaUBKTNV-1" source="pUbMLzkqoJvdjn61nzLm-0" edge="1" target="zkfFHV4jXpPFQw0GAbJ--17">
          <mxGeometry width="50" height="50" relative="1" as="geometry">
            <mxPoint x="630" y="230" as="sourcePoint" />
            <mxPoint x="1080" y="220" as="targetPoint" />
          </mxGeometry>
        </mxCell>
        <mxCell id="pUbMLzkqoJvdjn61nzLm-18" value="" style="endArrow=block;html=1;rounded=0;exitX=1;exitY=0.5;exitDx=0;exitDy=0;dashed=1;endFill=0;entryX=0;entryY=1;entryDx=0;entryDy=0;" parent="WIyWlLk6GJQsqaUBKTNV-1" source="pUbMLzkqoJvdjn61nzLm-8" edge="1" target="pUbMLzkqoJvdjn61nzLm-0">
          <mxGeometry width="50" height="50" relative="1" as="geometry">
            <mxPoint x="630" y="230" as="sourcePoint" />
            <mxPoint x="890" y="220" as="targetPoint" />
          </mxGeometry>
        </mxCell>
      </root>
    </mxGraphModel>
  </diagram>
</mxfile>
